<?xml version="1.0" encoding="UTF-8"?>
<svg id="Layer_2" data-name="Layer 2" xmlns="http://www.w3.org/2000/svg" xmlns:xlink="http://www.w3.org/1999/xlink" viewBox="0 0 152.78 43.03">
  <defs>
    <style>
      .cls-1 {
        fill: #f7f3f0;
      }

      .cls-2 {
        fill: url(#linear-gradient);
      }
    </style>
    <linearGradient id="linear-gradient" x1="-1.12" y1="7.49" x2="94.14" y2="60.37" gradientUnits="userSpaceOnUse">
      <stop offset=".12" stop-color="#7bff85"/>
      <stop offset=".25" stop-color="#75f076"/>
      <stop offset=".51" stop-color="#6cd65b"/>
      <stop offset=".75" stop-color="#66c64a"/>
      <stop offset=".93" stop-color="#65c145"/>
    </linearGradient>
  </defs>
  <g id="Layer_1-2" data-name="Layer 1">
    <g>
      <path class="cls-2" d="m39.85.79v39.49h-7.92V13.63l-9.84,14.46h-4.38L7.32,13.69v26.59H0V.79h7.32l13.08,18.18L32.53.79h7.32Zm2.33,32.16c-4.24-8.48-.68-17.58,7.37-21.61,3.01-1.5,6.95-2.34,10.33-2.15l3.06,6.12c-3.17-.7-6.95-.21-9.74,1.19-4.88,2.44-6.65,7.49-4.29,12.21,2.44,4.88,7.12,6.44,12,3.99,2.63-1.32,4.94-3.81,6.44-6.85l4.64,2.57c-1.53,4.46-4.91,8.56-9.42,10.82-8.05,4.03-16.45,1.59-20.4-6.3Z"/>
      <path class="cls-1" d="m85.81,29.77l-5.28,4.86v7.32h-7.74c0-13.68,0-27.36,0-41.04l7.74-.9v26.47l13.32-13.2h9.9l-12.6,11.64,13.44,17.04h-9.78l-9-12.18Z"/>
      <path class="cls-1" d="m100.33,28.03c0-9,7.2-15.78,16.62-15.78s16.2,6.24,16.2,15-7.26,15.78-16.62,15.78-16.2-6.24-16.2-15Zm24.84-.12c0-5.94-3.42-9.78-8.7-9.78-4.92,0-8.22,3.72-8.22,9.24,0,5.94,3.42,9.72,8.7,9.72,4.92,0,8.22-3.66,8.22-9.18Z"/>
      <path class="cls-1" d="m134.71,3.87c2.58-.35,5.17-.7,7.75-1.05v10.44h10.32v6.12l-10.32-.06v22.63h-7.74c0-12.69,0-25.38-.01-38.08Z"/>
    </g>
  </g>
</svg>