<?xml version="1.0" encoding="UTF-8"?>
<svg id="Layer_2" data-name="Layer 2" xmlns="http://www.w3.org/2000/svg" xmlns:xlink="http://www.w3.org/1999/xlink" viewBox="0 0 54.15 54.15">
  <defs>
    <style>
      .cls-1 {
        fill: url(#linear-gradient);
      }
    </style>
    <linearGradient id="linear-gradient" x1="44.12" y1="-2.45" x2="10.03" y2="56.6" gradientUnits="userSpaceOnUse">
      <stop offset=".09" stop-color="#43d99a"/>
      <stop offset=".3" stop-color="#51ce76"/>
      <stop offset=".51" stop-color="#5cc75b"/>
      <stop offset=".69" stop-color="#62c24a"/>
      <stop offset=".82" stop-color="#65c145"/>
    </linearGradient>
  </defs>
  <g id="Layer_1-2" data-name="Layer 1">
    <path class="cls-1" d="m46.24,0H7.91C3.54,0,0,3.54,0,7.91v38.34c0,4.37,3.54,7.91,7.91,7.91h38.34c4.37,0,7.91-3.54,7.91-7.91V7.91c0-4.37-3.54-7.91-7.91-7.91ZM10.55,14.23h3.58l6.4,8.9,5.94-8.9h3.58v19.33h-3.88v-13.04l-4.82,7.08h-2.14l-5.08-7.05v13.02h-3.58V14.23Zm35.19,27.19H10.49v-3.89h35.25v3.89Zm-4.55-8.37c-3.94,1.97-8.05.78-9.99-3.08-2.08-4.15-.33-8.61,3.61-10.58,1.47-.74,3.4-1.15,5.06-1.05l1.5,2.99c-1.55-.34-3.4-.1-4.77.58-2.39,1.2-3.26,3.67-2.1,5.98,1.2,2.39,3.48,3.15,5.87,1.96,1.29-.64,2.42-1.87,3.15-3.35l2.27,1.26c-.75,2.18-2.4,4.19-4.61,5.3Z"/>
  </g>
</svg>