<?xml version="1.0" encoding="UTF-8"?>
<svg id="Layer_2" data-name="Layer 2" xmlns="http://www.w3.org/2000/svg" xmlns:xlink="http://www.w3.org/1999/xlink" viewBox="0 0 158.32 44.61">
  <defs>
    <style>
      .cls-1 {
        fill: #053318;
      }

      .cls-2 {
        fill: url(#linear-gradient);
      }
    </style>
    <linearGradient id="linear-gradient" x1="-6.83" y1="1.05" x2="64.63" y2="50.72" gradientUnits="userSpaceOnUse">
      <stop offset=".09" stop-color="#43d99a"/>
      <stop offset=".3" stop-color="#51ce76"/>
      <stop offset=".51" stop-color="#5cc75b"/>
      <stop offset=".69" stop-color="#62c24a"/>
      <stop offset=".82" stop-color="#65c145"/>
    </linearGradient>
  </defs>
  <g id="Layer_1-2" data-name="Layer 1">
    <g>
      <path class="cls-2" d="m41.31,2.55v40.94h-8.21V15.87l-10.2,15h-4.54L7.59,15.93v27.56H0V2.55h7.59l13.56,18.85L33.72,2.55h7.59Zm2.42,33.34c-4.4-8.79-.7-18.22,7.64-22.4,3.12-1.56,7.2-2.43,10.71-2.23l3.17,6.34c-3.28-.72-7.21-.22-10.1,1.23-5.06,2.53-6.9,7.77-4.45,12.66,2.53,5.06,7.38,6.67,12.44,4.14,2.73-1.36,5.12-3.95,6.68-7.1l4.81,2.67c-1.58,4.62-5.09,8.88-9.76,11.22-8.34,4.18-17.06,1.65-21.15-6.53Z"/>
      <path class="cls-1" d="m88.35,30.86l-5.48,5.04v7.59h-8.03c0-14.18,0-28.37,0-42.55l8.02-.94v27.44l13.81-13.69h10.26l-13.07,12.07,13.94,17.67h-10.14l-9.33-12.63Z"/>
      <path class="cls-1" d="m103.94,29.06c0-9.33,7.47-16.36,17.23-16.36s16.8,6.47,16.8,15.55-7.53,16.36-17.23,16.36-16.8-6.47-16.8-15.55Zm25.71-.12c0-6.16-3.55-10.14-9.02-10.14-5.1,0-8.52,3.86-8.52,9.58,0,6.16,3.55,10.08,9.02,10.08,5.1,0,8.52-3.8,8.52-9.52Z"/>
      <path class="cls-1" d="m139.58,4.02c2.68-.36,5.36-.73,8.04-1.09v10.83h10.7v6.35l-10.7-.06v23.46h-8.03c0-13.16,0-26.32-.01-39.47Z"/>
    </g>
  </g>
</svg>