<?xml version="1.0" encoding="UTF-8"?>
<svg id="Layer_2" data-name="Layer 2" xmlns="http://www.w3.org/2000/svg" xmlns:xlink="http://www.w3.org/1999/xlink" viewBox="0 0 194.49 141.75">
  <defs>
    <style>
      .cls-1 {
        fill: url(#linear-gradient);
      }
    </style>
    <linearGradient id="linear-gradient" x1="0" y1="70.88" x2="194.49" y2="70.88" gradientUnits="userSpaceOnUse">
      <stop offset=".09" stop-color="#43d99a"/>
      <stop offset=".3" stop-color="#51ce76"/>
      <stop offset=".51" stop-color="#5cc75b"/>
      <stop offset=".69" stop-color="#62c24a"/>
      <stop offset=".82" stop-color="#65c145"/>
    </linearGradient>
  </defs>
  <g id="Layer_1-2" data-name="Layer 1">
    <path class="cls-1" d="m107.65,0v106.68h-21.4V34.69l-26.59,39.07h-11.83l-28.05-38.91v71.82H0V0h19.78l35.34,49.12L87.87,0h19.78Zm6.3,86.88c-11.47-22.9-1.84-47.49,19.91-58.38,8.12-4.06,18.77-6.32,27.91-5.81l8.27,16.52c-8.55-1.88-18.78-.57-26.32,3.2-13.19,6.61-17.97,20.24-11.59,32.99,6.6,13.19,19.22,17.39,32.41,10.79,7.1-3.56,13.34-10.3,17.4-18.5l12.54,6.95c-4.13,12.04-13.26,23.14-25.44,29.23-21.74,10.89-44.44,4.3-55.11-17.01Zm76.51,38.57H0v16.3h190.46v-16.3Z"/>
  </g>
</svg>